<?xml version="1.0" encoding="utf-8"?>
<!DOCTYPE svg PUBLIC "-//W3C//DTD SVG 20010904//EN" "http://www.w3.org/TR/2001/REC-SVG-20010904/DTD/svg10.dtd">
<svg version="1.0" xmlns="http://www.w3.org/2000/svg" width="122pt" height="152pt" viewBox="0 0 122 152" preserveAspectRatio="xMidYMid meet">
<g fill="#2B80DBFE">
<path d="M 13.94 108.83 C 6.89 99.96 4.50 93.81 4.50 84.50 C 4.50 77.28 4.84 75.88 7.93 70.17 C 12.52 61.71 21.65 52.71 39.06 39.49 C 59.97 23.61 66.38 17.81 70.65 10.89 L 74.44 4.75 L 75.32 8.13 C 76.91 14.16 75.61 25.93 72.68 32.00 C 68.70 40.28 63.35 45.81 48.19 57.32 C 33.00 68.85 24.43 77.42 21.01 84.47 C 18.22 90.25 17.09 99.27 18.18 107.23 C 18.64 110.58 18.83 113.51 18.59 113.74 C 18.36 113.97 16.27 111.76 13.94 108.83Z"/></g>
<g fill="#0D9431FF">
<path d="M 56.16 142.09 C 49.28 133.38 46.61 126.65 46.60 118.00 C 46.60 111.71 47.08 109.54 49.55 104.54 C 53.59 96.37 65.28 84.80 82.91 71.52 C 100.45 58.31 110.29 49.17 114.02 42.65 L 116.82 37.73 L 117.54 43.48 C 119.13 56.24 115.96 66.38 107.40 75.90 C 104.91 78.66 96.72 85.61 89.19 91.33 C 81.66 97.05 73.40 103.98 70.83 106.73 C 61.90 116.31 58.14 128.00 60.10 140.12 C 60.64 143.49 60.88 146.45 60.63 146.70 C 60.38 146.96 58.37 144.88 56.16 142.09Z"/></g>
<g fill="#FCC908FE">
<path d="M 36.07 125.97 C 33.89 123.21 30.63 117.96 28.84 114.32 C 26.07 108.71 25.58 106.62 25.60 100.60 C 25.63 91.20 28.24 85.58 36.30 77.51 C 42.39 71.43 61.47 58.00 64.03 58.00 C 65.94 58.00 64.48 69.14 61.91 74.18 C 60.74 76.47 56.20 81.98 51.83 86.42 C 42.93 95.45 40.75 98.98 39.09 107.04 C 38.01 112.28 38.67 121.75 40.61 128.75 C 41.56 132.18 40.43 131.49 36.07 125.97Z"/></g>
</svg>
